<svg viewBox="0 0 1050 210" xmlns="http://www.w3.org/2000/svg" xml:space="preserve" style="fill-rule:evenodd;clip-rule:evenodd;stroke-linejoin:round;stroke-miterlimit:2">
    <path d="M49.343 150S48.74 82.96 80 40c31.26-42.96-22.936 57.633-10 102.896S49.343 150 49.343 150Z" style="fill:#442213" transform="translate(405.5 5.685)"/>
    <text x="40" y="120" style="font-family:'Arial-BoldMT','Arial',sans-serif;font-weight:700;font-size:90.743px;fill:#442213" transform="translate(378.313 36.64)">V</text>
    <text x="100.525" y="120" style="font-family:'ArialMT','Arial',sans-serif;font-size:90.743px;fill:#442213" transform="translate(378.313 36.64)">acation</text>
    <text x="393.136" y="120" style="font-family:'ArialMT','Arial',sans-serif;font-size:90.743px;fill:#404040" transform="translate(378.313 36.64)">BOT</text>
    <path style="fill:#404040" d="M441 134h28v1h-28z" transform="translate(412.528 -1.315)"/>
    <path style="fill:#404040" d="M465 95h4v12h-4z" transform="translate(400.528 -12.315)"/>
    <path style="fill:#3070b3" d="M180 170h360v10H180z" transform="matrix(1.30456 0 0 1.49647 251.707 -83.68)"/>
    <path d="M10 180s4.797-30.876 60-31c62.498-.14 116.434 28.893 115 31H10Z" style="fill:#efd46a" transform="translate(385.5 5.685)"/>
    <ellipse cx="42.5" cy="97.198" rx="22.5" ry="12.198" style="fill:#0b6700" transform="matrix(.90049 0 0 1.02479 454.127 -61.422)"/>
    <path d="M25 45s-3.578-34.429 65-25c13.341 1.834 23.264 9.859 24.523 11.814 1.991 3.092-12.147-.214-26.55-.429C28.834 30.502 20.375 37.87 25 45Z" style="fill:#0b6700" transform="matrix(.31106 .73894 -.92167 .38798 499.198 -12.878)"/>
    <path d="M25 45s-3.578-34.429 65-25c13.341 1.834 23.264 9.859 24.523 11.814 1.991 3.092-12.147-.214-26.55-.429C28.834 30.502 20.375 37.87 25 45Z" style="fill:#0b6700" transform="matrix(.82823 .37598 -.41335 .91057 452.789 -5.774)"/>
    <path d="M25 45s-3.578-34.429 65-25c13.341 1.834 23.264 9.859 24.523 11.814 1.991 3.092-12.147-.214-26.55-.429C28.834 30.502 20.375 37.87 25 45Z" style="fill:#0b6700" transform="matrix(.79823 -.07498 .09353 .99562 445.908 17.757)"/>
    <path d="M25 45c1.337-1.098 6.171-42.791 65-25 36.751 11.114 12.376 11.6-2.027 11.385C28.834 30.502 20.375 37.87 25 45Z" style="fill:#0b6700" transform="matrix(-.76848 -.28413 -.28413 .76848 537.594 26.206)"/>
    <path d="M25 45s-3.578-34.429 65-25c13.341 1.834 23.264 9.859 24.523 11.814 1.991 3.092-12.147-.214-26.55-.429C28.834 30.502 20.375 37.87 25 45Z" style="fill:#0b6700" transform="matrix(-.78746 .15065 .1879 .98219 523.537 .842)"/>
    <path d="M25 45s-3.578-34.429 65-25c13.341 1.834 23.264 9.859 24.523 11.814 1.991 3.092-12.147-.214-26.55-.429C28.834 30.502 20.375 37.87 25 45Z" style="fill:#0b6700" transform="matrix(-.67688 .42969 .53594 .84426 515.32 -6.161)"/>
    <path d="M10 85s2.382-52.643 16.163-52.301C39.944 33.041 16.696 44.441 20 85c3.304 40.559-10 0-10 0Z" style="fill:#0b6700" transform="matrix(.99603 -.08898 .0175 .19587 489.052 17.168)"/>
    <path d="M10 85s2.382-52.643 16.163-52.301C39.944 33.041 16.696 44.441 20 85c3.304 40.559-10 0-10 0Z" style="fill:#0b6700" transform="matrix(-.84908 -.52827 -.10388 .16697 519.349 23.056)"/>
    <circle cx="466.5" cy="121.5" r="3.5" style="fill:#404040" transform="translate(323.385 -24.172) scale(1.14286)"/>
    <circle cx="466.5" cy="121.5" r="3.5" style="fill:#404040" transform="translate(344.385 -24.172) scale(1.14286)"/>
    <ellipse cx="471" cy="95" rx="5" ry="4" style="fill:#404040" transform="matrix(1.96128 0 0 1.375 -56.043 -48.44)"/>
    <path style="fill:#404040" d="M422 114h3v9h-3z" transform="matrix(.33333 0 0 .77778 696.861 22.018)"/>
    <path d="M434 114c0-2.13-4.029-3.857-9-3.857h-3c-4.971 0-9 1.727-9 3.857v9c0 2.13 4.029 3.857 9 3.857h3c4.971 0 9-1.727 9-3.857v-9Zm-9 0h-3v9h3v-9Z" style="fill:#404040" transform="matrix(.33333 0 0 .77778 696.861 22.018)"/>
    <path style="fill:#404040" d="M422 114h3v9h-3z" transform="matrix(.33333 0 0 .77778 754.861 22.018)"/>
    <path d="M434 114c0-2.13-4.029-3.857-9-3.857h-3c-4.971 0-9 1.727-9 3.857v9c0 2.13 4.029 3.857 9 3.857h3c4.971 0 9-1.727 9-3.857v-9Zm-9 0h-3v9h3v-9Z" style="fill:#404040" transform="matrix(.33333 0 0 .77778 754.861 22.018)"/>
    <g transform="matrix(.81096 0 0 .81096 20 13.85)">
        <clipPath id="a">
            <path d="M0 0h408.16v212.467H0z"/>
        </clipPath>
        <g clip-path="url(#a)">
            <path d="M156.555 0v173.328h44.729V0H408.16v212.467h-39.139V39.139h-44.729v173.328h-39.139V39.139h-44.73v173.328H117.416V39.139H78.277v173.328H39.139V39.139H0V0h156.555Z" style="fill:#3070b3;fill-rule:nonzero"/>
        </g>
    </g>
    <path d="M370.5 0h10v210h-10z"/>
    <path d="M380.5 0h-10v210h10V0Zm-4 4v202h-2V4h2Z"/>
</svg>
