<?xml version="1.0" encoding="UTF-8" standalone="no"?>
<!DOCTYPE svg PUBLIC "-//W3C//DTD SVG 1.1//EN" "http://www.w3.org/Graphics/SVG/1.1/DTD/svg11.dtd">
<svg width="100%" height="100%" viewBox="0 0 192 192" version="1.1" xmlns="http://www.w3.org/2000/svg" xmlns:xlink="http://www.w3.org/1999/xlink" xml:space="preserve" xmlns:serif="http://www.serif.com/" style="fill-rule:evenodd;clip-rule:evenodd;stroke-linejoin:round;stroke-miterlimit:2;">
    <g transform="matrix(1,0,0,1,20,0)">
        <path d="M49.343,150C49.343,150 48.74,82.96 80,40C111.26,-2.96 57.064,97.633 70,142.896C82.936,188.159 49.343,150 49.343,150Z" style="fill:rgb(68,34,19);"/>
    </g>
    <g transform="matrix(1,0,0,1,-7.18702,30.9557)">
        <text x="40px" y="120px" style="font-family:'Arial-BoldMT', 'Arial', sans-serif;font-weight:700;font-size:90.743px;fill:rgb(68,34,19);">VB</text>
    </g>
    <path d="M10,180C10,180 14.797,149.124 70,149C132.498,148.86 186.434,177.893 185,180L10,180Z" style="fill:rgb(239,212,106);"/>
    <g transform="matrix(0.900487,0,0,1.02479,68.6273,-67.107)">
        <ellipse cx="42.5" cy="97.198" rx="22.5" ry="12.198" style="fill:rgb(11,103,0);"/>
    </g>
    <g transform="matrix(0.311062,0.738941,-0.921667,0.387982,113.698,-18.5627)">
        <path d="M25,45C25,45 21.422,10.571 90,20C103.341,21.834 113.264,29.859 114.523,31.814C116.514,34.906 102.376,31.6 87.973,31.385C28.834,30.502 20.375,37.87 25,45Z" style="fill:rgb(11,103,0);"/>
    </g>
    <g transform="matrix(0.828231,0.375975,-0.413354,0.910571,67.2893,-11.4585)">
        <path d="M25,45C25,45 21.422,10.571 90,20C103.341,21.834 113.264,29.859 114.523,31.814C116.514,34.906 102.376,31.6 87.973,31.385C28.834,30.502 20.375,37.87 25,45Z" style="fill:rgb(11,103,0);"/>
    </g>
    <g transform="matrix(0.79823,-0.0749848,0.0935271,0.995617,60.4078,12.0719)">
        <path d="M25,45C25,45 21.422,10.571 90,20C103.341,21.834 113.264,29.859 114.523,31.814C116.514,34.906 102.376,31.6 87.973,31.385C28.834,30.502 20.375,37.87 25,45Z" style="fill:rgb(11,103,0);"/>
    </g>
    <g transform="matrix(-0.768484,-0.28413,-0.28413,0.768484,152.094,20.5215)">
        <path d="M25,45C26.337,43.902 31.171,2.209 90,20C126.751,31.114 102.376,31.6 87.973,31.385C28.834,30.502 20.375,37.87 25,45Z" style="fill:rgb(11,103,0);"/>
    </g>
    <g transform="matrix(-0.787462,0.150654,0.187907,0.982187,138.037,-4.84291)">
        <path d="M25,45C25,45 21.422,10.571 90,20C103.341,21.834 113.264,29.859 114.523,31.814C116.514,34.906 102.376,31.6 87.973,31.385C28.834,30.502 20.375,37.87 25,45Z" style="fill:rgb(11,103,0);"/>
    </g>
    <g transform="matrix(-0.676877,0.429687,0.53594,0.844256,129.82,-11.8463)">
        <path d="M25,45C25,45 21.422,10.571 90,20C103.341,21.834 113.264,29.859 114.523,31.814C116.514,34.906 102.376,31.6 87.973,31.385C28.834,30.502 20.375,37.87 25,45Z" style="fill:rgb(11,103,0);"/>
    </g>
    <g transform="matrix(0.996034,-0.0889753,0.017497,0.19587,103.552,11.4833)">
        <path d="M10,85C10,85 12.382,32.357 26.163,32.699C39.944,33.041 16.696,44.441 20,85C23.304,125.559 10,85 10,85Z" style="fill:rgb(11,103,0);"/>
    </g>
    <g transform="matrix(-0.849078,-0.528267,-0.103884,0.166972,133.849,17.3714)">
        <path d="M10,85C10,85 12.382,32.357 26.163,32.699C39.944,33.041 16.696,44.441 20,85C23.304,125.559 10,85 10,85Z" style="fill:rgb(11,103,0);"/>
    </g>
</svg>
