<?xml version="1.0" encoding="UTF-8" standalone="no"?><!DOCTYPE svg PUBLIC "-//W3C//DTD SVG 1.1//EN" "http://www.w3.org/Graphics/SVG/1.1/DTD/svg11.dtd"><svg width="100%" height="100%" viewBox="0 0 7 7" version="1.1" xmlns="http://www.w3.org/2000/svg" xmlns:xlink="http://www.w3.org/1999/xlink" xml:space="preserve" xmlns:serif="http://www.serif.com/" style="fill-rule:evenodd;clip-rule:evenodd;stroke-linecap:round;stroke-linejoin:round;stroke-miterlimit:1.5;"><path d="M6.48,0.324c-0,-0.179 -0.145,-0.324 -0.324,-0.324l-5.832,-0c-0.179,-0 -0.324,0.145 -0.324,0.324l-0,5.832c-0,0.179 0.145,0.324 0.324,0.324l5.832,0c0.179,0 0.324,-0.145 0.324,-0.324l-0,-5.832Z" style="fill:#83d2f8;stroke:#000;stroke-width:0.18px;"/><g><path d="M2.141,5.425c0,0 -0.022,-2.413 1.135,-3.959c1.158,-1.547 -0.849,2.074 -0.37,3.703c0.479,1.63 -0.765,0.256 -0.765,0.256Z" style="fill:#442213;"/><g><path d="M1.775,5.423l-0.888,-2.831l0.544,-0l0.629,2.096l0.608,-2.096l0.533,-0l-0.89,2.831l-0.536,0Z" style="fill:#442213;fill-rule:nonzero;"/><path d="M3.283,2.592l1.104,-0c0.219,-0 0.382,0.01 0.489,0.029c0.107,0.019 0.204,0.059 0.288,0.12c0.085,0.061 0.156,0.142 0.212,0.244c0.057,0.101 0.085,0.215 0.085,0.341c-0,0.136 -0.035,0.261 -0.105,0.375c-0.069,0.114 -0.164,0.2 -0.283,0.257c0.168,0.051 0.298,0.14 0.388,0.264c0.09,0.125 0.136,0.271 0.136,0.44c-0,0.132 -0.03,0.261 -0.088,0.386c-0.058,0.125 -0.138,0.226 -0.239,0.3c-0.101,0.075 -0.226,0.121 -0.374,0.139c-0.093,0.01 -0.317,0.017 -0.673,0.019l-0.94,0l0,-2.914Zm0.558,0.485l-0,0.674l0.365,-0c0.218,-0 0.353,-0.003 0.405,-0.01c0.096,-0.012 0.171,-0.047 0.226,-0.104c0.054,-0.058 0.081,-0.134 0.081,-0.228c0,-0.09 -0.023,-0.163 -0.07,-0.22c-0.047,-0.056 -0.117,-0.09 -0.21,-0.102c-0.055,-0.007 -0.214,-0.01 -0.477,-0.01l-0.32,-0Zm-0,1.159l-0,0.779l0.516,0c0.201,0 0.328,-0.006 0.382,-0.017c0.083,-0.016 0.151,-0.055 0.203,-0.117c0.052,-0.061 0.078,-0.144 0.078,-0.247c0,-0.088 -0.02,-0.162 -0.06,-0.223c-0.04,-0.061 -0.098,-0.105 -0.174,-0.133c-0.076,-0.028 -0.241,-0.042 -0.495,-0.042l-0.45,0Z" style="fill:#442213;fill-rule:nonzero;"/></g><path d="M0.18,6.407c-0,0 0.893,-1.346 2.88,-1.35c2.25,-0.005 3.202,1.274 3.15,1.35l-6.03,0Z" style="fill:#efd46a;"/><ellipse cx="3.49" cy="1.188" rx="0.729" ry="0.45" style="fill:#0b6700;"/><path d="M2.522,0.643c-0,0 1.102,-0.576 1.557,1.38c0.088,0.38 -0.067,0.756 -0.118,0.817c-0.08,0.096 -0.129,-0.326 -0.283,-0.712c-0.633,-1.585 -0.972,-1.707 -1.156,-1.485Z" style="fill:#0b6700;"/><path d="M2.14,1.419c-0,-0 0.405,-1.177 2.31,0.06c0.37,0.241 0.546,0.638 0.555,0.719c0.013,0.128 -0.359,-0.171 -0.785,-0.373c-1.75,-0.829 -2.112,-0.702 -2.08,-0.406Z" style="fill:#0b6700;"/><path d="M2.686,1.998c0,-0 -0.219,-1.224 1.784,-1.072c0.389,0.03 0.701,0.291 0.744,0.358c0.068,0.105 -0.35,0.025 -0.764,0.056c-1.702,0.128 -1.921,0.415 -1.764,0.658Z" style="fill:#0b6700;"/><path d="M3.965,1.746c-0.026,-0.044 0.267,-1.247 -1.542,-1.357c-1.131,-0.068 -0.461,0.195 -0.061,0.336c1.645,0.581 1.804,0.871 1.603,1.021Z" style="fill:#0b6700;"/><path d="M4.206,1.57c0,0 -0.131,-1.236 -2.011,-0.531c-0.366,0.137 -0.593,0.475 -0.615,0.55c-0.036,0.121 0.343,-0.073 0.749,-0.159c1.671,-0.352 1.96,-0.137 1.877,0.14Z" style="fill:#0b6700;"/><path d="M4.574,1.346c-0,-0 -0.577,-1.102 -2.066,0.245c-0.29,0.262 -0.377,0.66 -0.37,0.739c0.012,0.124 0.292,-0.195 0.639,-0.424c1.424,-0.941 1.772,-0.848 1.797,-0.56Z" style="fill:#0b6700;"/><path d="M3.781,0.999c0,-0 0.053,-0.379 0.547,-0.421c0.494,-0.042 -0.332,0.113 -0.188,0.389c0.144,0.275 -0.359,0.032 -0.359,0.032Z" style="fill:#0b6700;"/><path d="M3.836,0.964c0,0 0.124,-0.362 -0.298,-0.622c-0.422,-0.26 0.245,0.251 -0.007,0.432c-0.253,0.181 0.305,0.19 0.305,0.19Z" style="fill:#0b6700;"/></g><path d="M6.48,0.324c-0,-0.179 -0.145,-0.324 -0.324,-0.324l-5.832,-0c-0.179,-0 -0.324,0.145 -0.324,0.324l-0,5.832c-0,0.179 0.145,0.324 0.324,0.324l5.832,0c0.179,0 0.324,-0.145 0.324,-0.324l-0,-5.832Z" style="fill:none;stroke:#000;stroke-width:0.18px;"/></svg>