<?xml version="1.0" encoding="UTF-8"?>
<!DOCTYPE svg  PUBLIC '-//W3C//DTD SVG 1.1//EN'  'http://www.w3.org/Graphics/SVG/1.1/DTD/svg11.dtd'>
<svg clip-rule="evenodd" fill-rule="evenodd" stroke-linecap="round" stroke-linejoin="round" stroke-miterlimit="1.5" version="1.1" viewBox="0 0 7 7" xml:space="preserve" xmlns="http://www.w3.org/2000/svg"><path d="m6.48 0.324c-0-0.179-0.145-0.324-0.324-0.324h-5.832c-0.179-0-0.324 0.145-0.324 0.324v5.832c-0 0.179 0.145 0.324 0.324 0.324h5.832c0.179 0 0.324-0.145 0.324-0.324v-5.832z" fill="#83d2f8" stroke="#000" stroke-width=".18px"/><path d="m2.141 5.425s-0.022-2.413 1.135-3.959c1.158-1.547-0.849 2.074-0.37 3.703 0.479 1.63-0.765 0.256-0.765 0.256z" fill="#442213"/><g fill="#442213" fill-rule="nonzero"><path d="m1.775 5.423-0.888-2.831h0.544l0.629 2.096 0.608-2.096h0.533l-0.89 2.831h-0.536z"/><path d="m3.283 2.592h1.104c0.219-0 0.382 0.01 0.489 0.029s0.204 0.059 0.288 0.12c0.085 0.061 0.156 0.142 0.212 0.244 0.057 0.101 0.085 0.215 0.085 0.341-0 0.136-0.035 0.261-0.105 0.375-0.069 0.114-0.164 0.2-0.283 0.257 0.168 0.051 0.298 0.14 0.388 0.264 0.09 0.125 0.136 0.271 0.136 0.44-0 0.132-0.03 0.261-0.088 0.386s-0.138 0.226-0.239 0.3c-0.101 0.075-0.226 0.121-0.374 0.139-0.093 0.01-0.317 0.017-0.673 0.019h-0.94v-2.914zm0.558 0.485v0.674h0.365c0.218-0 0.353-3e-3 0.405-0.01 0.096-0.012 0.171-0.047 0.226-0.104 0.054-0.058 0.081-0.134 0.081-0.228 0-0.09-0.023-0.163-0.07-0.22-0.047-0.056-0.117-0.09-0.21-0.102-0.055-7e-3 -0.214-0.01-0.477-0.01h-0.32zm-0 1.159v0.779h0.516c0.201 0 0.328-6e-3 0.382-0.017 0.083-0.016 0.151-0.055 0.203-0.117 0.052-0.061 0.078-0.144 0.078-0.247 0-0.088-0.02-0.162-0.06-0.223s-0.098-0.105-0.174-0.133-0.241-0.042-0.495-0.042h-0.45z"/></g><path d="m0.18 6.407s0.893-1.346 2.88-1.35c2.25-5e-3 3.202 1.274 3.15 1.35h-6.03z" fill="#efd46a"/><ellipse cx="3.49" cy="1.188" rx=".729" ry=".45" fill="#0b6700"/><path d="m2.522 0.643s1.102-0.576 1.557 1.38c0.088 0.38-0.067 0.756-0.118 0.817-0.08 0.096-0.129-0.326-0.283-0.712-0.633-1.585-0.972-1.707-1.156-1.485z" fill="#0b6700"/><path d="m2.14 1.419s0.405-1.177 2.31 0.06c0.37 0.241 0.546 0.638 0.555 0.719 0.013 0.128-0.359-0.171-0.785-0.373-1.75-0.829-2.112-0.702-2.08-0.406z" fill="#0b6700"/><path d="m2.686 1.998s-0.219-1.224 1.784-1.072c0.389 0.03 0.701 0.291 0.744 0.358 0.068 0.105-0.35 0.025-0.764 0.056-1.702 0.128-1.921 0.415-1.764 0.658z" fill="#0b6700"/><path d="m3.965 1.746c-0.026-0.044 0.267-1.247-1.542-1.357-1.131-0.068-0.461 0.195-0.061 0.336 1.645 0.581 1.804 0.871 1.603 1.021z" fill="#0b6700"/><path d="m4.206 1.57s-0.131-1.236-2.011-0.531c-0.366 0.137-0.593 0.475-0.615 0.55-0.036 0.121 0.343-0.073 0.749-0.159 1.671-0.352 1.96-0.137 1.877 0.14z" fill="#0b6700"/><path d="m4.574 1.346s-0.577-1.102-2.066 0.245c-0.29 0.262-0.377 0.66-0.37 0.739 0.012 0.124 0.292-0.195 0.639-0.424 1.424-0.941 1.772-0.848 1.797-0.56z" fill="#0b6700"/><path d="m3.781 0.999s0.053-0.379 0.547-0.421-0.332 0.113-0.188 0.389c0.144 0.275-0.359 0.032-0.359 0.032z" fill="#0b6700"/><path d="m3.836 0.964s0.124-0.362-0.298-0.622 0.245 0.251-7e-3 0.432c-0.253 0.181 0.305 0.19 0.305 0.19z" fill="#0b6700"/><path d="m6.48 0.324c-0-0.179-0.145-0.324-0.324-0.324h-5.832c-0.179-0-0.324 0.145-0.324 0.324v5.832c-0 0.179 0.145 0.324 0.324 0.324h5.832c0.179 0 0.324-0.145 0.324-0.324v-5.832z" fill="none" stroke="#000" stroke-width=".18px"/></svg>
