<?xml version="1.0" encoding="UTF-8" standalone="no"?>
<!DOCTYPE svg PUBLIC "-//W3C//DTD SVG 1.1//EN" "http://www.w3.org/Graphics/SVG/1.1/DTD/svg11.dtd">
<svg width="100%" height="100%" viewBox="0 0 1050 210" version="1.1" xmlns="http://www.w3.org/2000/svg" xmlns:xlink="http://www.w3.org/1999/xlink" xml:space="preserve" xmlns:serif="http://www.serif.com/" style="fill-rule:evenodd;clip-rule:evenodd;stroke-linejoin:round;stroke-miterlimit:2;">
    <g transform="matrix(1,0,0,1,405.5,5.68493)">
        <path d="M49.343,150C49.343,150 48.74,82.96 80,40C111.26,-2.96 57.064,97.633 70,142.896C82.936,188.159 49.343,150 49.343,150Z" style="fill:rgb(68,34,19);"/>
    </g>
    <g transform="matrix(1,0,0,1,378.313,36.6406)">
        <text x="40px" y="120px" style="font-family:'Arial-BoldMT', 'Arial', sans-serif;font-weight:700;font-size:90.743px;fill:rgb(68,34,19);">V</text>
        <text x="100.525px" y="120px" style="font-family:'ArialMT', 'Arial', sans-serif;font-size:90.743px;fill:rgb(68,34,19);">acation</text>
        <text x="393.136px" y="120px" style="font-family:'ArialMT', 'Arial', sans-serif;font-size:90.743px;fill:rgb(64,64,64);">BOT</text>
    </g>
    <g transform="matrix(1,0,0,1,412.528,-1.31507)">
        <rect x="441" y="134" width="28" height="1" style="fill:rgb(64,64,64);"/>
    </g>
    <g transform="matrix(1,0,0,1,400.528,-12.3151)">
        <rect x="465" y="95" width="4" height="12" style="fill:rgb(64,64,64);"/>
    </g>
    <g transform="matrix(1.30456,0,0,1.49647,251.707,-83.6791)">
        <rect x="180" y="170" width="360" height="10" style="fill:rgb(48,112,179);"/>
    </g>
    <g transform="matrix(1,0,0,1,385.5,5.68493)">
        <path d="M10,180C10,180 14.797,149.124 70,149C132.498,148.86 186.434,177.893 185,180L10,180Z" style="fill:rgb(239,212,106);"/>
    </g>
    <g transform="matrix(0.900487,0,0,1.02479,454.127,-61.4221)">
        <ellipse cx="42.5" cy="97.198" rx="22.5" ry="12.198" style="fill:rgb(11,103,0);"/>
    </g>
    <g transform="matrix(0.311062,0.738941,-0.921667,0.387982,499.198,-12.8778)">
        <path d="M25,45C25,45 21.422,10.571 90,20C103.341,21.834 113.264,29.859 114.523,31.814C116.514,34.906 102.376,31.6 87.973,31.385C28.834,30.502 20.375,37.87 25,45Z" style="fill:rgb(11,103,0);"/>
    </g>
    <g transform="matrix(0.828231,0.375975,-0.413354,0.910571,452.789,-5.77358)">
        <path d="M25,45C25,45 21.422,10.571 90,20C103.341,21.834 113.264,29.859 114.523,31.814C116.514,34.906 102.376,31.6 87.973,31.385C28.834,30.502 20.375,37.87 25,45Z" style="fill:rgb(11,103,0);"/>
    </g>
    <g transform="matrix(0.79823,-0.0749848,0.0935271,0.995617,445.908,17.7568)">
        <path d="M25,45C25,45 21.422,10.571 90,20C103.341,21.834 113.264,29.859 114.523,31.814C116.514,34.906 102.376,31.6 87.973,31.385C28.834,30.502 20.375,37.87 25,45Z" style="fill:rgb(11,103,0);"/>
    </g>
    <g transform="matrix(-0.768484,-0.28413,-0.28413,0.768484,537.594,26.2064)">
        <path d="M25,45C26.337,43.902 31.171,2.209 90,20C126.751,31.114 102.376,31.6 87.973,31.385C28.834,30.502 20.375,37.87 25,45Z" style="fill:rgb(11,103,0);"/>
    </g>
    <g transform="matrix(-0.787462,0.150654,0.187907,0.982187,523.537,0.842016)">
        <path d="M25,45C25,45 21.422,10.571 90,20C103.341,21.834 113.264,29.859 114.523,31.814C116.514,34.906 102.376,31.6 87.973,31.385C28.834,30.502 20.375,37.87 25,45Z" style="fill:rgb(11,103,0);"/>
    </g>
    <g transform="matrix(-0.676877,0.429687,0.53594,0.844256,515.32,-6.16138)">
        <path d="M25,45C25,45 21.422,10.571 90,20C103.341,21.834 113.264,29.859 114.523,31.814C116.514,34.906 102.376,31.6 87.973,31.385C28.834,30.502 20.375,37.87 25,45Z" style="fill:rgb(11,103,0);"/>
    </g>
    <g transform="matrix(0.996034,-0.0889753,0.017497,0.19587,489.052,17.1683)">
        <path d="M10,85C10,85 12.382,32.357 26.163,32.699C39.944,33.041 16.696,44.441 20,85C23.304,125.559 10,85 10,85Z" style="fill:rgb(11,103,0);"/>
    </g>
    <g transform="matrix(-0.849078,-0.528267,-0.103884,0.166972,519.349,23.0563)">
        <path d="M10,85C10,85 12.382,32.357 26.163,32.699C39.944,33.041 16.696,44.441 20,85C23.304,125.559 10,85 10,85Z" style="fill:rgb(11,103,0);"/>
    </g>
    <g transform="matrix(1.14286,0,0,1.14286,323.385,-24.1722)">
        <circle cx="466.5" cy="121.5" r="3.5" style="fill:rgb(64,64,64);"/>
    </g>
    <g transform="matrix(1.14286,0,0,1.14286,344.385,-24.1722)">
        <circle cx="466.5" cy="121.5" r="3.5" style="fill:rgb(64,64,64);"/>
    </g>
    <g transform="matrix(1.96128,0,0,1.375,-56.0427,-48.4401)">
        <ellipse cx="471" cy="95" rx="5" ry="4" style="fill:rgb(64,64,64);"/>
    </g>
    <g transform="matrix(0.333333,0,0,0.777778,696.861,22.0183)">
        <rect x="422" y="114" width="3" height="9" style="fill:rgb(64,64,64);"/>
        <path d="M434,114C434,111.87 429.971,110.143 425,110.143L422,110.143C417.029,110.143 413,111.87 413,114L413,123C413,125.13 417.029,126.857 422,126.857L425,126.857C429.971,126.857 434,125.13 434,123L434,114ZM425,114L422,114L422,123L425,123L425,114Z" style="fill:rgb(64,64,64);"/>
    </g>
    <g transform="matrix(0.333333,0,0,0.777778,754.861,22.0183)">
        <rect x="422" y="114" width="3" height="9" style="fill:rgb(64,64,64);"/>
        <path d="M434,114C434,111.87 429.971,110.143 425,110.143L422,110.143C417.029,110.143 413,111.87 413,114L413,123C413,125.13 417.029,126.857 422,126.857L425,126.857C429.971,126.857 434,125.13 434,123L434,114ZM425,114L422,114L422,123L425,123L425,114Z" style="fill:rgb(64,64,64);"/>
    </g>
    <g id="Logo_of_the_Technical_University_of_Munich.svg" transform="matrix(0.810956,0,0,0.810956,185.5,100)">
        <g transform="matrix(1,0,0,1,-204.08,-106.233)">
            <clipPath id="_clip1">
                <rect x="0" y="0" width="408.16" height="212.467"/>
            </clipPath>
            <g clip-path="url(#_clip1)">
                <path id="path6" d="M156.555,0L156.555,173.328L201.284,173.328L201.284,0L408.16,0L408.16,212.467L369.021,212.467L369.021,39.139L324.292,39.139L324.292,212.467L285.153,212.467L285.153,39.139L240.423,39.139L240.423,212.467L117.416,212.467L117.416,39.139L78.277,39.139L78.277,212.467L39.139,212.467L39.139,39.139L0,39.139L0,0L156.555,0Z" style="fill:rgb(48,112,179);fill-rule:nonzero;"/>
            </g>
        </g>
    </g>
    <g transform="matrix(1,0,0,0.954545,-49.5,-19.0909)">
        <rect x="420" y="20" width="10" height="220"/>
        <path d="M430,20L420,20L420,240L430,240L430,20ZM426,24.19L426,235.81C426,235.81 424,235.81 424,235.81C424,208.132 424,51.868 424,24.19L426,24.19Z"/>
    </g>
</svg>
