<?xml version="1.0" encoding="UTF-8"?>
<!DOCTYPE svg  PUBLIC '-//W3C//DTD SVG 1.1//EN'  'http://www.w3.org/Graphics/SVG/1.1/DTD/svg11.dtd'>
<svg clip-rule="evenodd" fill-rule="evenodd" stroke-linecap="round" stroke-linejoin="round" stroke-miterlimit="1.5" version="1.1" viewBox="0 0 7 7" xml:space="preserve" xmlns="http://www.w3.org/2000/svg">
    <g transform="scale(.18)">
        <g transform="matrix(1.8462 0 0 1.44 -8.3077 -5.76)">
            <path d="m24 5.25c0-0.69-0.437-1.25-0.975-1.25h-17.55c-0.538 0-0.975 0.56-0.975 1.25v22.5c0 0.69 0.437 1.25 0.975 1.25h17.55c0.538 0 0.975-0.56 0.975-1.25v-22.5z" fill="#83d2f8" stroke="#000" stroke-width=".6px"/>
        </g>
        <g transform="matrix(.19997 0 0 .19997 1.3999 1.2056)">
            <g transform="matrix(1.0285 0 0 1 1.6855 -5.7814)">
                <path d="m49.343 150s-0.603-67.04 30.657-110-22.936 57.633-10 102.9-20.657 7.104-20.657 7.104z" fill="#442213"/>
            </g>
            <g transform="matrix(.94749 0 0 1 -11.634 24.956)">
                <g transform="matrix(1.1215 0 0 1.2111 -13.957 -26.112)">
                    <path d="m63.173 120-23.217-64.956h14.223l16.438 48.075 15.907-48.075h13.912l-23.261 64.956h-14.002z" fill="#442213" fill-rule="nonzero"/>
                </g>
                <g transform="matrix(1.2466 0 0 1.2466 -32.491 -28.066)">
                    <path d="m107.17 55.044h25.965c5.139 0 8.972 0.214 11.498 0.643 2.525 0.428 4.785 1.322 6.779 2.68 1.994 1.359 3.655 3.168 4.984 5.428 1.33 2.26 1.994 4.793 1.994 7.599 0 3.042-0.819 5.834-2.459 8.374-1.639 2.541-3.862 4.446-6.668 5.716 3.958 1.152 7 3.116 9.127 5.893s3.19 6.041 3.19 9.792c0 2.954-0.686 5.827-2.06 8.618-1.373 2.791-3.249 5.022-5.627 6.691-2.378 1.668-5.31 2.695-8.795 3.079-2.186 0.236-7.459 0.384-15.818 0.443h-22.11v-64.956zm13.115 10.811v15.021h8.596c5.11 0 8.286-0.074 9.526-0.222 2.245-0.265 4.01-1.041 5.295-2.326s1.928-2.976 1.928-5.073c0-2.009-0.554-3.641-1.662-4.896-1.108-1.256-2.755-2.016-4.94-2.282-1.3-0.148-5.037-0.222-11.21-0.222h-7.533zm0 25.832v17.369h12.141c4.726 0 7.724-0.133 8.994-0.399 1.95-0.354 3.538-1.218 4.763-2.592 1.226-1.373 1.839-3.212 1.839-5.516 0-1.95-0.472-3.604-1.418-4.963-0.945-1.359-2.311-2.348-4.098-2.968-1.787-0.621-5.664-0.931-11.631-0.931h-10.59z" fill="#442213" fill-rule="nonzero"/>
                </g>
            </g>
            <g transform="translate(-12.055 -8.5004)">
                <path d="m10 180s24.81-37.382 80.013-37.506c62.497-0.14 88.948 35.399 87.514 37.506h-167.53z" fill="#efd46a"/>
            </g>
            <g transform="matrix(.90049 0 0 1.0248 51.626 -73.107)">
                <ellipse cx="42.5" cy="97.198" rx="22.5" ry="12.198" fill="#0b6700"/>
            </g>
            <g transform="matrix(.31106 .73894 -.92167 .38798 96.698 -24.563)">
                <path d="m25 45s-3.578-34.429 65-25c13.341 1.834 23.264 9.859 24.523 11.814 1.991 3.092-12.147-0.214-26.55-0.429-59.139-0.883-67.598 6.485-62.973 13.615z" fill="#0b6700"/>
            </g>
            <g transform="matrix(.82823 .37598 -.41335 .91057 50.288 -17.458)">
                <path d="m25 45s-3.578-34.429 65-25c13.341 1.834 23.264 9.859 24.523 11.814 1.991 3.092-12.147-0.214-26.55-0.429-59.139-0.883-67.598 6.485-62.973 13.615z" fill="#0b6700"/>
            </g>
            <g transform="matrix(.79823 -.074985 .093527 .99562 43.407 6.0719)">
                <path d="m25 45s-3.578-34.429 65-25c13.341 1.834 23.264 9.859 24.523 11.814 1.991 3.092-12.147-0.214-26.55-0.429-59.139-0.883-67.598 6.485-62.973 13.615z" fill="#0b6700"/>
            </g>
            <g transform="matrix(-.76848 -.28413 -.28413 .76848 135.09 14.522)">
                <path d="M25,45C26.337,43.902 31.171,2.209 90,20C126.751,31.114 102.376,31.6 87.973,31.385C28.834,30.502 20.375,37.87 25,45Z" fill="#0b6700"/>
            </g>
            <g transform="matrix(-.78746 .15065 .18791 .98219 121.04 -10.843)">
                <path d="m25 45s-3.578-34.429 65-25c13.341 1.834 23.264 9.859 24.523 11.814 1.991 3.092-12.147-0.214-26.55-0.429-59.139-0.883-67.598 6.485-62.973 13.615z" fill="#0b6700"/>
            </g>
            <g transform="matrix(-.67688 .42969 .53594 .84426 112.82 -17.846)">
                <path d="m25 45s-3.578-34.429 65-25c13.341 1.834 23.264 9.859 24.523 11.814 1.991 3.092-12.147-0.214-26.55-0.429-59.139-0.883-67.598 6.485-62.973 13.615z" fill="#0b6700"/>
            </g>
            <g transform="matrix(.99603 -.088975 .017497 .19587 86.552 5.4833)">
                <path d="m10 85s2.382-52.643 16.163-52.301-9.467 11.742-6.163 52.301-10 0-10 0z" fill="#0b6700"/>
            </g>
            <g transform="matrix(-.84908 -.52827 -.10388 .16697 116.85 11.371)">
                <path d="m10 85s2.382-52.643 16.163-52.301-9.467 11.742-6.163 52.301-10 0-10 0z" fill="#0b6700"/>
            </g>
        </g>
        <g transform="matrix(1.8462 0 0 1.44 -8.3077 -5.76)">
            <path d="m24 5.25c0-0.69-0.437-1.25-0.975-1.25h-17.55c-0.538 0-0.975 0.56-0.975 1.25v22.5c0 0.69 0.437 1.25 0.975 1.25h17.55c0.538 0 0.975-0.56 0.975-1.25v-22.5z" fill="none" stroke="#000" stroke-width=".6px"/>
        </g>
    </g>
</svg>
