<?xml version="1.0" encoding="UTF-8" standalone="no"?><!DOCTYPE svg PUBLIC "-//W3C//DTD SVG 1.1//EN" "http://www.w3.org/Graphics/SVG/1.1/DTD/svg11.dtd"><svg width="100%" height="100%" viewBox="0 0 2292 800" version="1.1" xmlns="http://www.w3.org/2000/svg" xmlns:xlink="http://www.w3.org/1999/xlink" xml:space="preserve" xmlns:serif="http://www.serif.com/" style="fill-rule:evenodd;clip-rule:evenodd;stroke-linejoin:round;stroke-miterlimit:2;"><path d="M180.48,637.5c-0,0 -2.514,-279.333 127.737,-458.333c130.251,-179 -95.566,240.139 -41.667,428.733c53.899,188.594 -86.07,29.6 -86.07,29.6Z" style="fill:#442213;"/><g transform="matrix(4.16667,0,0,4.16667,-138.396,141.482)"><text x="40px" y="120px" style="font-family:'Arial-BoldMT', 'Arial', sans-serif;font-weight:700;font-size:90.743px;fill:#442213;">V</text><text x="100.525px" y="120px" style="font-family:'ArialMT', 'Arial', sans-serif;font-size:90.743px;fill:#442213;">acation</text><text x="393.136px" y="120px" style="font-family:'ArialMT', 'Arial', sans-serif;font-size:90.743px;fill:#404040;">BOT</text></g><rect x="1841.67" y="541.667" width="116.667" height="4.167" style="fill:#404040;"/><rect x="1891.67" y="333.333" width="16.667" height="50" style="fill:#404040;"/><rect x="312.5" y="700.147" width="1956.84" height="62.353" style="fill:#00a3c5;"/><path d="M-66.783,762.5c-0,0 19.989,-128.651 250,-129.167c260.407,-0.584 485.142,120.389 479.167,129.167l-729.167,0Z" style="fill:#efd46a;"/><ellipse cx="336.958" cy="147.917" rx="84.421" ry="52.083" style="fill:#0b6700;"/><path d="M224.884,84.875c-0,0 127.58,-66.676 180.253,159.715c10.246,44.04 -7.711,87.566 -13.587,94.602c-9.294,11.129 -14.92,-37.746 -32.762,-82.439c-73.26,-183.51 -112.519,-197.645 -133.904,-171.878Z" style="fill:#0b6700;"/><path d="M180.693,174.652c-0,0 46.948,-136.232 267.37,6.976c42.879,27.858 63.302,73.851 64.279,83.24c1.545,14.851 -41.55,-19.843 -90.883,-43.221c-202.566,-95.993 -244.449,-81.292 -240.766,-46.995Z" style="fill:#0b6700;"/><path d="M243.935,241.667c-0,-0 -25.319,-141.709 206.445,-124.019c45.085,3.442 81.217,33.632 86.165,41.349c7.826,12.205 -40.484,2.905 -88.471,6.513c-197.037,14.817 -222.302,48.025 -204.139,76.157Z" style="fill:#0b6700;"/><path d="M391.949,212.5c-2.98,-5.098 30.9,-144.322 -178.534,-157.002c-130.835,-7.921 -53.36,22.491 -6.988,38.854c190.408,67.187 208.773,100.794 185.522,118.148Z" style="fill:#0b6700;"/><path d="M419.91,192.174c0,0 -15.215,-143.146 -232.844,-61.509c-42.336,15.881 -68.612,54.952 -71.211,63.743c-4.112,13.904 39.687,-8.503 86.776,-18.424c193.348,-40.734 226.874,-15.892 217.279,16.19Z" style="fill:#0b6700;"/><path d="M462.449,166.197c0,0 -66.791,-127.519 -239.148,28.431c-33.529,30.337 -43.595,76.333 -42.779,85.463c1.29,14.442 33.779,-22.502 73.92,-49.044c164.819,-108.984 205.131,-98.212 208.007,-64.85Z" style="fill:#0b6700;"/><path d="M370.717,126.011c-0,-0 6.049,-43.847 63.267,-48.677c57.217,-4.83 -38.435,13.093 -21.766,44.969c16.669,31.877 -41.501,3.708 -41.501,3.708Z" style="fill:#0b6700;"/><path d="M377.085,122.005c-0,0 14.358,-41.868 -34.544,-71.963c-48.903,-30.096 28.41,29.008 -0.834,49.952c-29.245,20.945 35.378,22.011 35.378,22.011Z" style="fill:#0b6700;"/><circle cx="1854.17" cy="466.667" r="16.667" style="fill:#404040;"/><circle cx="1941.67" cy="466.667" r="16.667" style="fill:#404040;"/><ellipse cx="1900.81" cy="331.25" rx="40.86" ry="22.917" style="fill:#404040;"/><rect x="1775" y="450" width="4.167" height="29.167" style="fill:#404040;"/><path d="M1791.67,450c-0,-6.904 -5.597,-12.5 -12.5,-12.5l-4.167,0c-6.904,0 -12.5,5.596 -12.5,12.5l-0,29.167c-0,6.903 5.596,12.5 12.5,12.5l4.167,-0c6.903,-0 12.5,-5.597 12.5,-12.5l-0,-29.167Zm-12.5,0l-4.167,0l-0,29.167l4.167,-0l-0,-29.167Z" style="fill:#404040;"/><rect x="2016.67" y="450" width="4.167" height="29.167" style="fill:#404040;"/><path d="M2033.33,450c0,-6.904 -5.596,-12.5 -12.5,-12.5l-4.166,0c-6.904,0 -12.5,5.596 -12.5,12.5l-0,29.167c-0,6.903 5.596,12.5 12.5,12.5l4.166,-0c6.904,-0 12.5,-5.597 12.5,-12.5l0,-29.167Zm-12.5,0l-4.166,0l-0,29.167l4.166,-0l0,-29.167Z" style="fill:#404040;"/></svg>